<?xml version="1.0" encoding="UTF-8" standalone="no" ?>
<!DOCTYPE svg PUBLIC "-//W3C//DTD SVG 1.1//EN" "http://www.w3.org/Graphics/SVG/1.1/DTD/svg11.dtd">
<svg xmlns="http://www.w3.org/2000/svg" xmlns:xlink="http://www.w3.org/1999/xlink" version="1.1" width="1024" height="1024" viewBox="0 0 1024 1024" xml:space="preserve">
<desc>Created with Fabric.js 2.4.6</desc>
<defs>
</defs>
<rect x="0" y="0" width="100%" height="100%" fill="rgb(255,255,255)"></rect>
<g transform="matrix(1.57 0 0 1 512 512)" id="background-logo"  >
<rect style="stroke: none; stroke-width: 1; stroke-dasharray: none; stroke-linecap: butt; stroke-dashoffset: 0; stroke-linejoin: miter; stroke-miterlimit: 10; fill: rgb(255,255,255); fill-rule: nonzero; opacity: 1;"  x="-325" y="-512" rx="0" ry="0" width="650" height="1024" />
</g>
<g transform="matrix(1.57 0 0 1.57 512.01 441.48)" style="" id="logo-logo"  >
	<g transform="matrix(0.68 0 0 -0.68 -0.01 0)" id="logo-logo"  >
<path style="stroke: none; stroke-width: 1; stroke-dasharray: none; stroke-linecap: butt; stroke-dashoffset: 0; stroke-linejoin: miter; stroke-miterlimit: 10; fill: rgb(191,27,44); fill-rule: nonzero; opacity: 1;"  transform=" translate(-528.9, -506.22)" d="M 656.41 698.516 H 401.402 c -23.339 0 -42.265 -18.938 -42.265 -42.286 V 401.262 c 0 -23.352 18.926 -42.27 42.265 -42.27 h 53.965 v -45.066 l 109.735 87.336 l -12.735 -42.082 h 39.453 c 1.289 0 2.539 -0.098 3.782 -0.188 h 60.808 c 23.32 0 42.246 18.918 42.246 42.27 V 656.23 c 0 23.348 -18.926 42.286 -42.246 42.286" stroke-linecap="round" />
</g>
	<g transform="matrix(0.68 0 0 -0.68 40.61 38.58)" id="logo-logo"  >
<path style="stroke: none; stroke-width: 1; stroke-dasharray: none; stroke-linecap: butt; stroke-dashoffset: 0; stroke-linejoin: miter; stroke-miterlimit: 10; fill: rgb(154,25,42); fill-rule: nonzero; opacity: 1;"  transform=" translate(-588.34, -449.76)" d="m 614.887 540.527 l -15.449 -16.281 l -43.856 -20.32 c 0 0 -28.781 -28.809 -29.59 -28.809 c -0.781 0 -28.254 -24.824 -28.254 -24.824 l -19.715 -11.047 l 59.747 -59.734 l 27.332 21.75 l -0.118 -0.383 v 0 l -11.277 -37.313 l 4.395 -4.386 h 33.718 c 1.289 0 2.539 -0.098 3.782 -0.188 h 11.269 h 49.539 c 23.32 0 42.246 18.918 42.246 42.27 v 55.496 l -83.769 83.769" stroke-linecap="round" />
</g>
	<g transform="matrix(0.68 0 0 -0.68 11.55 -15.39)" id="logo-logo"  >
<path style="stroke: none; stroke-width: 1; stroke-dasharray: none; stroke-linecap: butt; stroke-dashoffset: 0; stroke-linejoin: miter; stroke-miterlimit: 10; fill: rgb(255,255,255); fill-rule: nonzero; opacity: 1;"  transform=" translate(-545.81, -528.75)" d="m 490.375 434.375 c 3.605 0 7.188 1.074 10.273 3.195 L 611.5 513.84 c 4.91 3.348 7.832 8.933 7.832 14.91 c 0 5.945 -2.922 11.543 -7.832 14.902 L 500.648 619.91 c -5.554 3.813 -12.742 4.262 -18.691 1.145 c -5.945 -3.153 -9.676 -9.325 -9.676 -16.055 V 452.488 c 0 -6.726 3.731 -12.886 9.676 -16.062 c 2.648 -1.367 5.539 -2.051 8.418 -2.051" stroke-linecap="round" />
</g>
</g>
<g transform="matrix(1.57 0 0 1.57 511.83 734.78)"  >
<path style="stroke: none; stroke-width: 1; stroke-dasharray: none; stroke-linecap: butt; stroke-dashoffset: 0; stroke-linejoin: miter; stroke-miterlimit: 10; fill: rgb(188,28,44); fill-rule: nonzero; opacity: ;"  transform=" translate(-247.7, 25.23)" d="M -1.64 0 L -1.64 0 Q 0.48 -7.83 3.04 -15.89 Q 5.61 -23.96 9.42 -35.19 Q 13.23 -46.42 14.63 -50.72 L 14.63 -50.72 Q 15.04 -51.41 15.18 -51.54 L 15.18 -51.54 L 20.92 -51.54 Q 22.93 -51.54 26.87 -51.61 Q 30.8 -51.68 32.81 -51.68 L 32.81 -51.68 L 38.55 -51.68 Q 39.2 -51.68 39.65 -51.65 Q 40.09 -51.61 40.62 -51.49 Q 41.15 -51.37 41.43 -51.08 Q 41.7 -50.79 41.7 -50.31 L 41.7 -50.31 L 57.46 -0.38 Q 57.46 0.31 56.96 0.56 Q 56.46 0.82 55.1 0.82 L 55.1 0.82 L 51.95 0.82 Q 50.59 0.82 47.89 0.85 Q 45.19 0.89 43.82 0.89 L 43.82 0.89 Q 43.41 0.89 42.16 0.94 Q 40.91 0.99 40.06 0.97 Q 39.2 0.96 38.16 0.87 Q 37.12 0.79 36.49 0.5 Q 35.85 0.21 35.68 -0.27 L 35.68 -0.27 L 35.68 -2.53 Q 35.34 -4.24 34.49 -5.67 Q 33.63 -7.11 32.68 -7.11 L 32.68 -7.11 L 20.92 -7.11 L 19.14 0.14 Q 18.76 0.96 15.31 0.96 L 15.31 0.96 L 12.58 0.96 Q 11.11 0.96 8.2 1.06 Q 5.3 1.16 3.83 1.16 L 3.83 1.16 L 2.87 1.16 Q 2.32 1.16 1.15 1.2 Q -0.03 1.23 -0.68 1.23 L -0.68 1.23 Q -0.96 0.96 -1.64 0 Z M 24.81 -32.61 L 22.08 -20.75 L 23.04 -19.14 L 25.29 -19.14 Q 28.03 -19.14 30.3 -19.47 Q 32.57 -19.79 32.57 -20.51 L 32.57 -20.51 L 28.16 -40.2 Q 27.55 -40.2 26.51 -37.87 Q 25.46 -35.55 24.81 -32.61 L 24.81 -32.61 Z M 59.81 -1.37 L 58.31 -2.87 Q 58.48 -8.54 58.58 -20.64 Q 58.69 -32.74 58.86 -38.55 L 58.86 -38.55 L 58.86 -45.94 Q 59.2 -47.17 59.68 -47.17 L 59.68 -47.17 L 59.68 -47.03 Q 62 -47.03 66.98 -47.17 Q 71.95 -47.3 74.44 -47.3 L 74.44 -47.3 L 80.19 -47.3 Q 80.22 -47.3 80.29 -47.27 L 80.29 -47.27 Q 80.9 -47.03 80.97 -46.72 L 80.97 -46.72 L 81.01 -46.48 Q 82.24 -43.17 83.5 -39.61 Q 84.77 -36.06 86.51 -31.02 Q 88.25 -25.98 88.94 -24.06 L 88.94 -24.06 L 88.94 -29.12 Q 89.62 -41.15 89.62 -46.21 L 89.62 -46.21 Q 89.62 -46.76 90.37 -46.89 Q 91.12 -47.03 92.7 -47.03 L 92.7 -47.03 L 104.38 -47.03 Q 104.73 -46.89 104.93 -46.11 Q 105.14 -45.32 105.21 -44.23 L 105.21 -44.23 Q 105.27 -43.2 105.27 -41.77 L 105.27 -41.77 Q 105.27 -41.43 105.31 -41.05 L 105.31 -41.05 Q 105.34 -39.99 105.27 -39.17 L 105.27 -39.17 Q 105.21 -38.01 105.17 -36.88 Q 105.14 -35.75 105.14 -35.41 L 105.14 -35.41 Q 105.07 -34.04 105.07 -31.58 L 105.07 -31.58 L 105.07 -27.96 Q 105.07 -25.57 105.14 -21.4 Q 105.21 -17.23 105.21 -15.24 L 105.21 -15.24 L 105.21 -2.8 Q 105.07 -1.64 103.29 -1.64 L 103.29 -1.64 L 84.15 -1.64 Q 83.88 -1.71 83.43 -2.53 Q 82.99 -3.35 82.58 -4.51 L 82.58 -4.51 Q 81.93 -6.32 80.41 -10.46 Q 78.89 -14.59 77.79 -17.72 Q 76.7 -20.85 75.81 -23.79 L 75.81 -23.79 L 75.81 -23.99 L 75.81 -23.79 Q 75.71 -21.53 75.61 -17.07 Q 75.5 -12.61 75.4 -10.39 L 75.4 -10.39 L 75.4 -3.42 Q 75.4 -2.39 75.16 -2 Q 74.92 -1.61 73.9 -1.37 L 73.9 -1.37 L 59.81 -1.37 Z M 110.26 -24.47 L 110.26 -24.47 Q 110.26 -32.98 114.57 -38.96 L 114.57 -38.96 L 115.53 -40.13 L 115.53 -40.61 L 115.53 -40.54 Q 121.68 -48.4 135.83 -48.4 L 135.83 -48.4 Q 137.88 -48.4 140.29 -48.04 Q 142.7 -47.68 145.42 -46.91 Q 148.13 -46.14 150.56 -44.64 Q 152.99 -43.13 154.42 -41.15 L 154.42 -41.15 Q 155.14 -40.2 155.52 -39.02 Q 155.89 -37.84 156.22 -35.97 Q 156.54 -34.11 156.75 -33.22 L 156.75 -33.22 Q 156.75 -32.06 154.56 -32.06 L 154.56 -32.06 L 151.76 -32.06 Q 150.8 -32.06 147.84 -32.16 Q 144.89 -32.27 143.14 -32.27 L 143.14 -32.27 L 139.38 -32.27 Q 138.91 -32.44 138.51 -33.34 Q 138.12 -34.25 138.02 -34.38 L 138.02 -34.38 L 138.02 -34.32 Q 137.4 -35.68 135.28 -35.68 L 135.28 -35.68 Q 133.88 -35.68 132.84 -35.09 Q 131.8 -34.49 131.25 -33.62 Q 130.7 -32.74 130.38 -31.43 Q 130.05 -30.11 129.97 -29.02 Q 129.88 -27.92 129.88 -26.52 L 129.88 -26.52 Q 129.88 -26.04 129.92 -25.19 Q 129.95 -24.34 129.95 -24.06 L 129.95 -24.06 L 129.95 -21.46 Q 129.95 -20.23 130.04 -19.31 Q 130.12 -18.39 130.46 -17.23 Q 130.81 -16.06 131.42 -15.31 Q 132.04 -14.56 133.2 -14.05 Q 134.36 -13.54 135.97 -13.54 L 135.97 -13.54 Q 139.32 -13.54 141.23 -14.15 L 141.23 -14.15 L 141.23 -15.65 Q 141.23 -15.93 141.2 -16.37 Q 141.16 -16.82 141.16 -17.09 L 141.16 -17.09 Q 141.16 -17.16 141.2 -17.43 Q 141.23 -17.71 141.23 -17.91 L 141.23 -17.91 L 139.93 -17.91 Q 139.66 -17.91 139.25 -17.88 Q 138.84 -17.84 138.7 -17.84 L 138.7 -17.84 L 135.83 -17.84 L 134.67 -19.14 Q 134.6 -19.48 134.6 -20.17 L 134.6 -20.17 L 134.6 -22.29 Q 134.6 -22.7 134.63 -23.55 Q 134.67 -24.4 134.67 -24.95 L 134.67 -24.95 L 134.67 -25.91 Q 134.67 -25.98 134.7 -26.22 Q 134.74 -26.46 134.74 -26.66 L 134.74 -26.66 L 134.74 -26.93 Q 134.74 -27.55 134.98 -27.92 Q 135.21 -28.3 135.9 -28.71 L 135.9 -28.71 L 139.11 -28.71 Q 139.45 -28.71 140.14 -28.57 L 140.14 -28.57 L 143.21 -28.57 Q 146.63 -28.44 148.27 -28.44 L 148.27 -28.44 L 151.55 -28.44 Q 156.75 -28.44 157.71 -27.48 L 157.71 -27.48 Q 157.71 -24.2 157.57 -17.5 Q 157.43 -10.8 157.43 -7.52 L 157.43 -7.52 L 157.43 -4.51 Q 157.16 -3.25 152.8 -2.24 Q 148.44 -1.23 144.12 -0.82 Q 139.79 -0.41 137.27 -0.41 L 137.27 -0.41 Q 134.6 -0.41 132.63 -0.55 Q 130.67 -0.68 127.95 -1.15 Q 125.23 -1.61 122.74 -2.72 Q 120.24 -3.83 118.06 -5.54 L 118.06 -5.54 L 116.62 -6.77 Q 116.04 -7.18 115.46 -8 L 115.46 -8 L 114.37 -9.43 Q 110.26 -15.89 110.26 -24.47 Z M 162.97 -17.16 L 162.97 -17.16 Q 163 -18.35 163 -20.13 L 163 -20.13 Q 163 -21.02 162.97 -22.08 L 162.97 -22.08 Q 162.97 -23.17 162.97 -24.13 L 162.97 -24.13 Q 162.97 -26.11 163 -27.82 L 163 -27.82 Q 163.04 -30.42 163.17 -32.81 L 163.17 -32.81 L 163.17 -33.77 Q 163.17 -33.94 163.21 -34.32 Q 163.24 -34.69 163.24 -34.86 L 163.24 -34.86 Q 163.24 -35.38 163.17 -36.4 Q 163.11 -37.43 163.11 -37.94 L 163.11 -37.94 L 163.11 -39.1 L 163.11 -39.03 Q 162.97 -39.72 162.97 -42.93 L 162.97 -42.93 Q 162.97 -46.62 163.65 -47.3 L 163.65 -47.3 L 182.25 -47.3 L 182.25 -18.59 Q 182.25 -14.15 184.84 -14.15 L 184.84 -14.15 Q 185.94 -14.15 186.66 -15.12 Q 187.37 -16.1 187.37 -17.43 L 187.37 -17.43 L 187.37 -22.49 Q 187.58 -37.46 187.58 -37.6 L 187.58 -37.6 Q 187.58 -43.54 187.44 -46.21 L 187.44 -46.21 Q 187.44 -47.17 188.4 -47.58 L 188.4 -47.58 L 207.4 -47.58 L 207.4 -42.25 Q 206.96 -29.29 206.86 -25.57 L 206.86 -25.57 L 206.86 -23.45 Q 206.86 -23.04 206.82 -22.35 Q 206.79 -21.67 206.79 -21.4 L 206.79 -21.4 Q 206.79 -20.23 206.86 -19.76 L 206.86 -19.76 L 206.86 -17.09 Q 206.86 -12.34 205.9 -10.25 L 205.9 -10.25 L 205.9 -10.12 Q 204.8 -7.55 202.75 -5.69 Q 200.7 -3.83 198.07 -2.79 Q 195.44 -1.74 192.67 -1.28 Q 189.9 -0.82 186.83 -0.82 L 186.83 -0.82 Q 185.87 -0.82 185.39 -1.03 L 185.39 -1.03 L 184.57 -1.03 Q 184.57 -0.68 183.54 -0.68 L 183.54 -0.68 L 183.54 -0.62 Q 183.48 -0.62 183.41 -0.62 L 183.41 -0.62 Q 182.49 -0.62 179.17 -0.96 L 179.17 -0.96 L 177.6 -0.96 Q 175.44 -1.2 173.44 -1.91 Q 171.45 -2.63 169.57 -3.95 Q 167.69 -5.26 166.27 -7.08 Q 164.85 -8.89 163.96 -11.48 Q 163.07 -14.08 162.97 -17.16 Z M 212.6 -2.32 L 212.6 -2.32 L 212.6 -17.09 Q 212.6 -20 212.84 -26.01 Q 213.08 -32.03 213.08 -35.14 L 213.08 -35.14 Q 213.08 -35.82 212.94 -38.04 Q 212.8 -40.26 212.8 -41.56 L 212.8 -41.56 Q 212.8 -46.38 213.96 -47.44 L 213.96 -47.44 Q 221.07 -47.3 224.56 -47.3 L 224.56 -47.3 L 227.84 -47.3 Q 229 -47.3 229.62 -47.24 L 229.62 -47.24 Q 229.69 -47.3 229.96 -47.3 L 229.96 -47.3 Q 230.03 -47.3 230.56 -47.24 Q 231.09 -47.17 231.4 -47.17 L 231.4 -47.17 Q 232.25 -47.07 232.83 -45.73 L 232.83 -45.73 L 232.83 -45.25 Q 232.83 -44.88 232.8 -44.16 Q 232.76 -43.44 232.76 -43.07 L 232.76 -43.07 L 232.76 -41.56 Q 232.73 -41.39 232.34 -40.96 Q 231.94 -40.54 231.94 -40.26 L 231.94 -40.26 L 231.94 -15.31 L 246.44 -15.31 Q 246.98 -15.31 247.26 -15.28 Q 247.53 -15.24 247.8 -14.97 Q 248.08 -14.7 248.08 -14.15 L 248.08 -14.15 L 248.08 -2.73 Q 247.8 -1.37 244.79 -1.37 L 244.79 -1.37 L 213.42 -1.37 Q 213.32 -1.5 213.09 -1.67 Q 212.87 -1.85 212.6 -2.32 Z M 261.95 -1.3 L 247.19 -1.3 L 247.19 -2.46 Q 249 -7.9 252.47 -19.14 Q 255.94 -30.39 257.85 -36.16 L 257.85 -36.16 L 257.85 -36.09 Q 259.01 -39.41 261.27 -46.48 L 261.27 -46.48 Q 261.68 -47.17 261.95 -47.44 L 261.95 -47.44 L 280.41 -47.3 Q 285.13 -47.3 285.61 -46.48 L 285.61 -46.48 L 285.61 -45.6 Q 285.67 -45.29 286.36 -44.02 L 286.36 -44.02 Q 289.71 -33.87 291.21 -29.26 L 291.21 -29.26 L 291.21 -28.85 Q 291.38 -27.55 292.56 -24.85 Q 293.74 -22.15 293.91 -21.6 L 293.91 -21.6 L 295.28 -16.68 Q 296.47 -12.71 298.8 -6.08 L 298.8 -6.08 L 298.8 -6.15 L 298.8 -5.47 Q 298.9 -4.99 299.31 -4.17 Q 299.72 -3.35 299.82 -3.01 L 299.82 -3.01 Q 299.82 -2.05 299.43 -1.78 Q 299.04 -1.5 297.91 -1.5 L 297.91 -1.5 L 282.05 -1.5 Q 281.47 -1.57 281.3 -1.61 Q 281.13 -1.64 280.77 -1.74 Q 280.41 -1.85 280.26 -2.02 Q 280.1 -2.19 280.07 -2.46 L 280.07 -2.46 L 278.77 -7.66 Q 278.63 -8.31 278.5 -8.39 Q 278.36 -8.48 277.68 -8.48 L 277.68 -8.48 L 267.15 -8.48 Q 266.94 -7.76 266.76 -6.73 Q 266.57 -5.71 266.45 -5.02 Q 266.33 -4.34 266.02 -3.57 Q 265.71 -2.8 265.27 -2.36 Q 264.82 -1.91 263.99 -1.61 Q 263.15 -1.3 261.95 -1.3 L 261.95 -1.3 Z M 268.79 -19.96 L 268.79 -19.96 L 277.27 -19.96 Q 277.27 -20.85 276.65 -23.17 L 276.65 -23.17 L 276.65 -23.93 Q 276.62 -24.03 276.53 -24.18 Q 276.45 -24.34 276.38 -24.49 Q 276.31 -24.64 276.31 -24.75 L 276.31 -24.75 Q 276.1 -25.7 275.71 -27.84 Q 275.32 -29.98 274.94 -31.56 Q 274.57 -33.15 274.12 -34.52 L 274.12 -34.52 L 274.12 -36.16 Q 273.85 -36.88 273.16 -37.19 L 273.16 -37.19 L 273.16 -37.12 Q 272.75 -37.02 272.29 -35.62 Q 271.83 -34.21 271.52 -32.54 L 271.52 -32.54 L 271.52 -30.9 Q 271.46 -30.66 271.22 -30.45 Q 270.98 -30.25 270.98 -30.21 L 270.98 -30.21 Q 269.85 -25.22 269.13 -22.15 L 269.13 -22.15 Q 269.13 -21.81 268.96 -20.95 Q 268.79 -20.1 268.79 -19.96 Z M 268.79 -20.64 L 268.79 -20.51 L 268.79 -20.64 Z M 320.06 -1.37 L 302.08 -1.37 L 302.08 -47.03 L 308.44 -47.03 Q 311.38 -47.03 317.84 -47.17 Q 324.3 -47.3 327.51 -47.3 L 327.51 -47.3 Q 329.8 -47.3 331.83 -47.08 Q 333.87 -46.86 335.92 -46.36 Q 337.97 -45.87 339.59 -44.96 Q 341.22 -44.06 342.48 -42.83 Q 343.75 -41.6 344.45 -39.77 Q 345.15 -37.94 345.15 -35.68 L 345.15 -35.68 Q 345.15 -31.96 343.4 -29.33 Q 341.66 -26.69 338.04 -24.88 L 338.04 -24.88 Q 339.47 -24.27 340.53 -23.28 Q 341.59 -22.29 342.16 -21.57 Q 342.72 -20.85 343.25 -19.16 Q 343.78 -17.47 343.88 -16.94 Q 343.98 -16.41 344.33 -14.32 L 344.33 -14.32 Q 344.43 -13.84 344.46 -13.6 L 344.46 -13.6 Q 344.6 -12.24 345.63 -8.6 Q 346.65 -4.96 346.65 -3.01 L 346.65 -3.01 Q 346.65 -1.78 345.9 -1.78 L 345.9 -1.78 Q 343.85 -1.78 339.69 -1.74 Q 335.54 -1.71 333.53 -1.71 L 333.53 -1.71 Q 332.71 -1.78 331.06 -1.78 L 331.06 -1.78 L 328.74 -1.78 Q 328.06 -1.98 327.41 -3.9 Q 326.76 -5.81 326.48 -8.2 L 326.48 -8.2 L 325.73 -14.29 Q 325.53 -15.04 325.41 -15.36 Q 325.29 -15.69 324.98 -16.15 Q 324.67 -16.61 324.14 -16.78 Q 323.61 -16.95 322.79 -16.95 L 322.79 -16.95 L 321.22 -16.95 L 321.22 -3.28 Q 321.22 -3.18 321.22 -2.96 Q 321.22 -2.73 321.22 -2.65 Q 321.22 -2.56 321.22 -2.39 Q 321.22 -2.22 321.19 -2.14 Q 321.15 -2.05 321.12 -1.91 Q 321.08 -1.78 321.03 -1.73 Q 320.98 -1.67 320.9 -1.59 Q 320.81 -1.5 320.69 -1.47 Q 320.57 -1.44 320.42 -1.4 Q 320.26 -1.37 320.06 -1.37 L 320.06 -1.37 Z M 321.22 -36.23 L 321.22 -34.93 Q 321.22 -33.94 321.32 -31.96 Q 321.43 -29.98 321.43 -28.98 L 321.43 -28.98 Q 321.49 -28.92 321.63 -28.69 Q 321.77 -28.47 321.9 -28.33 Q 322.04 -28.2 322.18 -28.16 L 322.18 -28.16 Q 322.96 -28.16 323.78 -28.28 Q 324.6 -28.4 325.53 -28.75 Q 326.45 -29.09 327.13 -29.63 Q 327.82 -30.18 328.28 -31.1 Q 328.74 -32.03 328.74 -33.22 L 328.74 -33.22 Q 328.74 -34.04 328.4 -34.69 Q 328.06 -35.34 327.41 -35.7 Q 326.76 -36.06 326.11 -36.3 Q 325.46 -36.54 324.57 -36.64 Q 323.68 -36.74 323.15 -36.76 Q 322.62 -36.78 321.9 -36.78 L 321.9 -36.78 Q 321.22 -36.61 321.22 -36.23 L 321.22 -36.23 Z M 366.27 0 L 366.27 0 Q 368.39 -7.83 370.95 -15.89 Q 373.52 -23.96 377.33 -35.19 Q 381.14 -46.42 382.54 -50.72 L 382.54 -50.72 Q 382.95 -51.41 383.09 -51.54 L 383.09 -51.54 L 388.83 -51.54 Q 390.84 -51.54 394.78 -51.61 Q 398.71 -51.68 400.72 -51.68 L 400.72 -51.68 L 406.46 -51.68 Q 407.11 -51.68 407.56 -51.65 Q 408 -51.61 408.53 -51.49 Q 409.06 -51.37 409.34 -51.08 Q 409.61 -50.79 409.61 -50.31 L 409.61 -50.31 L 425.37 -0.38 Q 425.37 0.31 424.87 0.56 Q 424.38 0.82 423.01 0.82 L 423.01 0.82 L 419.86 0.82 Q 418.5 0.82 415.8 0.85 Q 413.1 0.89 411.73 0.89 L 411.73 0.89 Q 411.32 0.89 410.07 0.94 Q 408.82 0.99 407.97 0.97 Q 407.11 0.96 406.07 0.87 Q 405.03 0.79 404.4 0.5 Q 403.76 0.21 403.59 -0.27 L 403.59 -0.27 L 403.59 -2.53 Q 403.25 -4.24 402.4 -5.67 Q 401.54 -7.11 400.59 -7.11 L 400.59 -7.11 L 388.83 -7.11 L 387.05 0.14 Q 386.67 0.96 383.22 0.96 L 383.22 0.96 L 380.49 0.96 Q 379.02 0.96 376.11 1.06 Q 373.21 1.16 371.74 1.16 L 371.74 1.16 L 370.78 1.16 Q 370.23 1.16 369.06 1.2 Q 367.88 1.23 367.23 1.23 L 367.23 1.23 Q 366.95 0.96 366.27 0 Z M 392.72 -32.61 L 389.99 -20.75 L 390.95 -19.14 L 393.2 -19.14 Q 395.94 -19.14 398.21 -19.47 Q 400.48 -19.79 400.48 -20.51 L 400.48 -20.51 L 396.07 -40.2 Q 395.46 -40.2 394.42 -37.87 Q 393.37 -35.55 392.72 -32.61 L 392.72 -32.61 Z M 445.09 -1.3 L 426.36 -1.3 L 426.36 -46.21 Q 426.39 -46.48 426.9 -46.71 Q 427.42 -46.93 427.52 -47.03 L 427.52 -47.03 L 445.91 -47.03 L 445.91 -2.53 Q 445.74 -1.81 445.58 -1.56 Q 445.43 -1.3 445.09 -1.3 L 445.09 -1.3 Z M 470.45 -1.37 L 452.47 -1.37 L 452.47 -47.03 L 458.83 -47.03 Q 461.77 -47.03 468.23 -47.17 Q 474.69 -47.3 477.9 -47.3 L 477.9 -47.3 Q 480.19 -47.3 482.22 -47.08 Q 484.26 -46.86 486.31 -46.36 Q 488.36 -45.87 489.98 -44.96 Q 491.61 -44.06 492.87 -42.83 Q 494.14 -41.6 494.84 -39.77 Q 495.54 -37.94 495.54 -35.68 L 495.54 -35.68 Q 495.54 -31.96 493.79 -29.33 Q 492.05 -26.69 488.43 -24.88 L 488.43 -24.88 Q 489.86 -24.27 490.92 -23.28 Q 491.98 -22.29 492.55 -21.57 Q 493.11 -20.85 493.64 -19.16 Q 494.17 -17.47 494.27 -16.94 Q 494.38 -16.41 494.72 -14.32 L 494.72 -14.32 Q 494.82 -13.84 494.85 -13.6 L 494.85 -13.6 Q 494.99 -12.24 496.02 -8.6 Q 497.04 -4.96 497.04 -3.01 L 497.04 -3.01 Q 497.04 -1.78 496.29 -1.78 L 496.29 -1.78 Q 494.24 -1.78 490.09 -1.74 Q 485.93 -1.71 483.92 -1.71 L 483.92 -1.71 Q 483.1 -1.78 481.46 -1.78 L 481.46 -1.78 L 479.13 -1.78 Q 478.45 -1.98 477.8 -3.9 Q 477.15 -5.81 476.88 -8.2 L 476.88 -8.2 L 476.12 -14.29 Q 475.92 -15.04 475.8 -15.36 Q 475.68 -15.69 475.37 -16.15 Q 475.06 -16.61 474.53 -16.78 Q 474 -16.95 473.18 -16.95 L 473.18 -16.95 L 471.61 -16.95 L 471.61 -3.28 Q 471.61 -3.18 471.61 -2.96 Q 471.61 -2.73 471.61 -2.65 Q 471.61 -2.56 471.61 -2.39 Q 471.61 -2.22 471.58 -2.14 Q 471.54 -2.05 471.51 -1.91 Q 471.47 -1.78 471.42 -1.73 Q 471.37 -1.67 471.29 -1.59 Q 471.2 -1.5 471.08 -1.47 Q 470.96 -1.44 470.81 -1.4 Q 470.65 -1.37 470.45 -1.37 L 470.45 -1.37 Z M 471.61 -36.23 L 471.61 -34.93 Q 471.61 -33.94 471.71 -31.96 Q 471.82 -29.98 471.82 -28.98 L 471.82 -28.98 Q 471.88 -28.92 472.02 -28.69 Q 472.16 -28.47 472.29 -28.33 Q 472.43 -28.2 472.57 -28.16 L 472.57 -28.16 Q 473.35 -28.16 474.17 -28.28 Q 475 -28.4 475.92 -28.75 Q 476.84 -29.09 477.52 -29.63 Q 478.21 -30.18 478.67 -31.1 Q 479.13 -32.03 479.13 -33.22 L 479.13 -33.22 Q 479.13 -34.04 478.79 -34.69 Q 478.45 -35.34 477.8 -35.7 Q 477.15 -36.06 476.5 -36.3 Q 475.85 -36.54 474.96 -36.64 Q 474.07 -36.74 473.54 -36.76 Q 473.01 -36.78 472.29 -36.78 L 472.29 -36.78 Q 471.61 -36.61 471.61 -36.23 L 471.61 -36.23 Z" stroke-linecap="round" />
</g>
</svg>